# xmcd
#
# Track frame offsets:
#	150
#	21435
#	36705
#	49890
#	72462
#	100880
#	116922
#	130595
#	145153
#	165554
#	196204
#	210075
#	221911
#	238646
#	257144
#	283549
#	295800
#
# Disc length: 4160 seconds
#
# Revision: 0
# Processed by: cddbd v1.5.2PL0 Copyright (c) Steve Scherf et al.
# Submitted via: EasyCDDAExtractor 10.2.0.1
#
DISCID=0d103e11
DTITLE=Savoy Jazzmen - From Eindhoven With Love
DYEAR=1997
DGENRE=Dixieland
TTITLE0=Panama Rag
TTITLE1=He's A Shape In A Drape
TTITLE2=It's Only A Papermoon
TTITLE3=Nobody Knows You When You're Down And Out
TTITLE4=The Man I Love
TTITLE5=<uskrat Ramble
TTITLE6=Petite Fleur
TTITLE7=Samantha
TTITLE8=When You Wore A Tulip And I Wore A Big Red Rose
TTITLE9=Georgia On My Mind
TTITLE10=Goody Goody
TTITLE11=The Green Leaves Of Summer
TTITLE12=Just A Gigolo
TTITLE13=Terrifying Blues
TTITLE14=What A Wonderful World
TTITLE15=From Russia With Love
TTITLE16=Ice Cream
EXTD=
EXTT0=
EXTT1=
EXTT2=
EXTT3=
EXTT4=
EXTT5=
EXTT6=
EXTT7=
EXTT8=
EXTT9=
EXTT10=
EXTT11=
EXTT12=
EXTT13=
EXTT14=
EXTT15=
EXTT16=
PLAYORDER=
